<svg width="140" height="112.00000000000001" xmlns="http://www.w3.org/2000/svg" xmlns:undefined="http://www.inkscape.org/namespaces/inkscape" xmlns:undefined="http://sodipodi.sourceforge.net/DTD/sodipodi-0.dtd" version="1.1">
 <title>Kew the Angry Emu</title>
 <defs>
  <linearGradient  y2="0.96748" y1="0.01219" x2="0.51412" x1="0.51412" id="cvfb">
   <stop stop-color="#fff" offset="0"/>
   <stop stop-opacity="0" stop-color="#fff" offset="1"/>
  </linearGradient>
  <radialGradient  gradientUnits="userSpaceOnUse" gradientTransform="matrix(0.9740002155303955,1.5099999904632568,-0.8360000252723694,0.5400000214576721,232.418701171875,-179.74615478515625)" r="55.9" cy="98.3" cx="117" id="cvfa">
   <stop offset="0"/>
   <stop stop-opacity="0.897" offset="1"/>
  </radialGradient>
 </defs>
 <metadata>image/svg+xmlKew the Angry EmuBenoît CanetCC BY 3.0QEMU Community2012-02-15QEMU logoQEMU mascothttp://lists.gnu.org/archive/html/qemu-devel/2012-02/msg01961.html</metadata>
 <g>
  <title>Layer 1</title>
  <g id="svg_11">
   <path id="svg_2" fill="url(#cvfa)"  d="m70.05,1.53846c-30.9,0 -55.9,24.9 -55.9,55.6c0,30.7 25,55.6 55.9,55.6c10.1,0 19.5,-2.65 27.7,-7.31l2.91,7.31l22.5,0l-8.81,-21.8c7.22,-9.36 11.5,-21.1 11.5,-33.8c0,-30.7 -25,-55.6 -55.8,-55.6z"/>
   <ellipse id="svg_3" fill="url(#cvfb)" ry="24.6" rx="35.4" cy="813.85927" cx="96.33333" transform="matrix(1.05 0 0 1.29 -31.6 -1017)"/>
   <circle id="svg_4" r="6.57" cy="23.63846" cx="75.72"/>
   <rect id="svg_5" height="5.5" width="37.6" y="18.30838" x="67.54706" transform="matrix(0.99 0.143 -0.19 0.982 0 0)"/>
   <rect id="svg_6" height="2.9" width="6.57" y="34.63846" x="97.05"/>
   <path id="svg_7" fill="#f60"  d="m55.05,10.63846c-0.057,2.19 -3.87,0.283 -4.03,2.78c-4.22,-1.88 0.329,2.87 -0.0937,3.31l-0.0312,0l-0.312,-0.0312c-0.204,-0.0728 -0.5,-0.199 -0.938,-0.469c-2.95,2.35 -3.02,7.23 -6.06,9.94c-1.99,4.31 -2.48,8.98 -3.94,13.5c-0.718,4.3 -1.35,8.6 -0.281,12.9c0.321,3.5 -0.689,8.26 2.5,10.7c4.73,3.88 8.66,8.8 12.6,13.5c6.22,7.65 11.7,15.9 16.6,24.4c0.324,-2.12 1.11,4.26 2.53,4.69c-0.492,-3.19 -1.13,-8.26 -1.44,-12.2c-1.58,-10.3 -6.65,-19.6 -8.56,-29.8c-0.0587,-0.43 -0.128,-0.872 -0.188,-1.31l0,-1.28l-0.156,0c-0.626,-5.04 -0.85,-10.5 2.81,-14.4c3.74,-3.77 9.31,-4.72 13.8,-7.34c1,-0.591 2.05,-1.07 3.12,-1.41c0.009,-0.003 0.0228,0.003 0.0312,0c3.12,-0.963 6.45,-0.933 9.69,-0.406c0.0479,0.008 0.108,0.0233 0.156,0.0312c0.295,0.0493 0.614,0.099 0.906,0.156c2.37,0.211 7.14,1.14 8,-0.5c-3.27,-2.79 -7.99,-2.59 -12,-3.69c-0.631,-0.115 -1.41,-0.24 -2.19,-0.312l-3.91,-0.875l-0.969,-0.25l0,0.0312l-14,-2.72c-0.222,-0.202 -0.464,-0.409 -0.688,-0.562l13.6,1.69l0,-0.0625c0.48,0.107 0.956,0.194 1.44,0.25l0,0.0312l9.62,1.78c1.66,0.62 3.43,1.08 5.09,1.19c2.74,0.399 6.23,4.49 7.12,4.69c-0.441,-4.31 -4.74,-6.24 -8.31,-7.5c-4.17,-2.03 -10.4,-1.95 -11.1,-7.56c-0.176,-0.391 -0.349,-0.781 -0.562,-1.16l-1.62,-2.16l0.0625,-0.0312c-2.22,-2.62 -5.34,-4.52 -8.66,-5.25c-3.29,-1.14 -6.99,-2.27 -10.5,-2.72c-1.18,3.48 -2.5,-2.76 -5.34,-0.906c-2.49,0.295 -2.15,0.953 -4,-0.625l0.2032,-0.0397zm17.9,10.2c0.902,-0.0238 1.93,0.142 2.97,0.5c2.76,0.954 4.56,2.97 4.03,4.5s-3.21,1.99 -5.97,1.03s-4.56,-2.93 -4.03,-4.47c0.331,-0.959 1.5,-1.52 3,-1.56z"/>
  </g>
 </g>
</svg>