<?xml version="1.0" encoding="UTF-8" standalone="no" ?>
<!DOCTYPE svg PUBLIC "-//W3C//DTD SVG 1.1//EN" "http://www.w3.org/Graphics/SVG/1.1/DTD/svg11.dtd">
<svg xmlns="http://www.w3.org/2000/svg" xmlns:xlink="http://www.w3.org/1999/xlink" version="1.1" width="1080" height="1080" viewBox="0 0 1080 1080" xml:space="preserve">
<desc>Created with Fabric.js 5.2.4</desc>
<defs>
</defs>
<g transform="matrix(1 0 0 1 540 540)" id="061c1759-3aa6-4e00-bc49-9fdda4fc8c94"  >
</g>
<g transform="matrix(1 0 0 1 540 540)" id="425064f0-5f86-4f4d-8757-fe4328e53134"  >
<rect style="stroke: none; stroke-width: 1; stroke-dasharray: none; stroke-linecap: butt; stroke-dashoffset: 0; stroke-linejoin: miter; stroke-miterlimit: 4; fill: rgb(255,255,255); fill-rule: nonzero; opacity: 1; visibility: hidden;" vector-effect="non-scaling-stroke"  x="-540" y="-540" rx="0" ry="0" width="1080" height="1080" />
</g>
<g transform="matrix(4.41 0 0 4.41 639.1 507.78)"  >
<path style="stroke: none; stroke-width: 1; stroke-dasharray: none; stroke-linecap: butt; stroke-dashoffset: 0; stroke-linejoin: miter; stroke-miterlimit: 4; fill: rgb(245,178,27); fill-rule: nonzero; opacity: 1;" vector-effect="non-scaling-stroke"  transform=" translate(-101.45, -71.35)" d="M 88 49.2 C 88 72.1 74.1 92.80000000000001 47.1 97.7 L 85.2 142.7 L 88.60000000000001 137.89999999999998 L 157.2 40.89999999999998 L 157.2 0 L 45.7 0 C 74.1 2.8 88 26.3 88 49.2 z" stroke-linecap="round" />
</g>
<g transform="matrix(4.41 0 0 4.41 540 589)"  >
<path style="stroke: none; stroke-width: 1; stroke-dasharray: none; stroke-linecap: butt; stroke-dashoffset: 0; stroke-linejoin: miter; stroke-miterlimit: 4; fill: rgb(40,50,114); fill-rule: nonzero; opacity: 1;" vector-effect="non-scaling-stroke"  transform=" translate(-79, -89.75)" d="M 9.7 76.9 L 36 76.9 C 55.4 76.9 65.1 63.10000000000001 65.1 49.2 C 65.1 35.300000000000004 55.39999999999999 22.200000000000003 35.99999999999999 22.200000000000003 L 0 22.200000000000003 L 0 157.3 L 67.2 157.3 L 9.7 88 L 9.7 76.9 z M 107.4 150.3 L 158 79.60000000000001 L 158 157.2 L 102.4 157.2 L 107.4 150.3 z" stroke-linecap="round" />
</g>
</svg>
